<svg
  id="Logo"
  data-name="レイヤー 1"
  xmlns="http://www.w3.org/2000/svg"
  viewBox="0 0 120 120"
>
    <defs>
      <style>
        .cls-1 {
          fill: #00b900;
        }
        .cls-2 {
          fill: #fff;
        }
      </style>
    </defs>
    <g id="FULL_COLOR_ICON" data-name="FULL COLOR ICON">
      <rect class="cls-1" width="120" height="120" rx="26" />
      <g id="TYPE_A" data-name="TYPE A">
        <path
          class="cls-2"
          d="M103.5,54.72c0-19.55-19.6-35.45-43.7-35.45S16.11,35.17,16.11,54.72c0,17.53,15.55,32.21,36.54,35,1.43.31,3.36.94,3.85,2.16a8.93,8.93,0,0,1,.14,4L56,99.55c-.19,1.1-.88,4.32,3.78,2.35S85,87.09,94.13,76.54h0c6.33-7,9.37-14,9.37-21.82"
        />
        <path
          class="cls-1"
          d="M50.93,45.28H47.86a.85.85,0,0,0-.85.85v19a.85.85,0,0,0,.85.85h3.07a.85.85,0,0,0,.85-.85v-19a.85.85,0,0,0-.85-.85"
        />
        <path
          class="cls-1"
          d="M72,45.28H69a.85.85,0,0,0-.85.85V57.44L59.38,45.65l-.06-.08h0l-.05-.05h0l0,0,0,0,0,0,0,0,0,0h0l-.05,0h0l-.05,0h-3.3a.85.85,0,0,0-.85.85v19a.85.85,0,0,0,.85.85h3.06a.86.86,0,0,0,.86-.85V53.86l8.73,11.79a.63.63,0,0,0,.22.21h0l.05,0h0l0,0,0,0h0l.06,0h0A.78.78,0,0,0,69,66H72a.85.85,0,0,0,.85-.85v-19a.85.85,0,0,0-.85-.85"
        />
        <path
          class="cls-1"
          d="M43.54,61.25H35.21V46.13a.85.85,0,0,0-.85-.85H31.3a.85.85,0,0,0-.85.85v19h0a.87.87,0,0,0,.23.59h0v0a.87.87,0,0,0,.59.23H43.54a.85.85,0,0,0,.85-.85V62.1a.85.85,0,0,0-.85-.85"
        />
        <path
          class="cls-1"
          d="M89,50a.85.85,0,0,0,.85-.85V46.13a.85.85,0,0,0-.85-.85H76.7a.85.85,0,0,0-.59.24h0v0a.83.83,0,0,0-.24.59h0v19h0a.83.83,0,0,0,.24.59h0a.85.85,0,0,0,.59.24H89a.85.85,0,0,0,.85-.85V62.1a.85.85,0,0,0-.85-.85H80.62V58H89a.85.85,0,0,0,.85-.85V54.11a.85.85,0,0,0-.85-.85H80.62V50Z"
        />
      </g>
    </g>
  </svg>
