<!--?xml version="1.0" encoding="utf-8"?-->
<!-- Generator: Adobe Illustrator 18.1.1, SVG Export Plug-In . SVG Version: 6.00 Build 0)  -->

<svg version="1.1" id="_x31_0" xmlns="http://www.w3.org/2000/svg" xmlns:xlink="http://www.w3.org/1999/xlink" x="0px" y="0px" viewBox="0 0 512 512" style="width: 256px; height: 256px; opacity: 1;" xml:space="preserve">
<style type="text/css">
	.st0{fill:#374149;}
</style>
<g>
	<polygon class="st0" points="135.652,58.4 135.652,181.064 171.715,208.373 171.715,94.463 254.867,94.463 254.867,58.4 	" style="fill: rgb(255, 255, 255);"></polygon>
	<polygon class="st0" points="171.715,417.541 171.715,345.884 171.813,303.76 171.715,303.83 171.715,303.631 135.652,330.936 
		135.652,453.604 254.867,453.604 254.867,417.541 171.809,417.541 	" style="fill: rgb(255, 255, 255);"></polygon>
	<path class="st0" d="M171.715,277.768l22.206-16.848c3.246-2.473,3.246-7.367,0-9.84l-22.206-16.843l-36.063-27.309l-26.328-19.938
		c-1.133-0.875-2.418-1.234-3.707-1.234c-3.195,0-6.183,2.524-6.183,6.18v27.309c0,3.398-2.73,6.179-6.129,6.179H6.183
		c-3.402,0-6.183,2.73-6.183,6.133v48.89c0,3.399,2.782,6.133,6.183,6.133h87.122c3.398,0,6.129,2.782,6.129,6.18v27.305
		c0,3.66,2.988,6.183,6.183,6.183c1.29,0,2.574-0.359,3.707-1.238l26.328-19.938L171.715,277.768z" style="fill: rgb(255, 255, 255);"></path>
	<path class="st0" d="M496.082,64.888l-12.161-3.504L473.621,58.4L314.785,12.545c-2.523-0.719-5.05-1.082-7.468-1.082
		c-14.274,0-26.688,11.594-26.688,26.793V58.4v36.062v323.078v36.062v20.144c0,15.199,12.414,26.79,26.688,26.79
		c2.472,0,4.945-0.359,7.468-1.082l158.836-45.851l10.301-2.989l12.161-3.503C505.508,444.38,512,435.78,512,425.94V86.064
		C512,76.224,505.508,67.619,496.082,64.888z M325.656,277.357v-42.66c0-2.832,2.266-5.047,5.047-5.047h16.746
		c2.781,0,5.046,2.215,5.046,5.047v42.66c0,2.782-2.266,4.996-5.046,4.996h-16.746C327.922,282.353,325.656,280.139,325.656,277.357
		z" style="fill: rgb(255, 255, 255);"></path>
</g>
</svg>
