<!--?xml version="1.0" encoding="utf-8"?-->
<!-- Generator: Adobe Illustrator 18.1.1, SVG Export Plug-In . SVG Version: 6.00 Build 0)  -->

<svg version="1.1" id="_x31_0" xmlns="http://www.w3.org/2000/svg" xmlns:xlink="http://www.w3.org/1999/xlink" x="0px" y="0px" viewBox="0 0 512 512" style="width: 256px; height: 256px; opacity: 1;" xml:space="preserve">
<style type="text/css">
	.st0{fill:#374149;}
</style>
<g>
	<polygon class="st0" points="257.101,94.287 257.101,94.448 340.312,94.448 340.312,204.811 376.378,204.811 376.378,58.987 
		376.378,58.542 376.378,58.542 376.378,58.382 257.101,58.382 257.101,94.178 257.101,94.287 	" style="fill: rgb(255, 255, 255);"></polygon>
	<polygon class="st0" points="376.378,307.35 376.378,307.19 340.312,307.19 340.312,417.553 257.101,417.553 257.101,453.346 
		257.101,453.455 257.101,453.455 257.101,453.619 376.378,453.619 376.378,307.795 376.378,307.35 	" style="fill: rgb(255, 255, 255);"></polygon>
	<path class="st0" d="M509.566,251.08l-84.652-64.094c-1.133-0.878-2.422-1.238-3.661-1.238c-3.191,0-6.179,2.524-6.179,6.184
		v27.305c0,3.402-2.786,6.183-6.184,6.183h-32.511h-36.066h-18.551c-3.398,0-6.129,2.73-6.129,6.133v48.894
		c0,3.402,2.73,6.133,6.129,6.133h18.551h36.066h32.511c3.398,0,6.184,2.782,6.184,6.18v27.309c0,3.66,2.988,6.183,6.179,6.183
		c1.238,0,2.528-0.359,3.661-1.238l84.652-64.094C512.811,258.447,512.811,253.553,509.566,251.08z" style="fill: rgb(255, 255, 255);"></path>
	<path class="st0" d="M204.652,11.444c-2.422,0.05-4.946,0.363-7.473,1.082L38.332,58.382L28.027,61.37l-12.156,3.504
		C6.442,67.604,0,76.21,0,86.05v339.902c0,9.84,6.442,18.441,15.871,21.175l12.156,3.504l10.305,2.989l158.847,45.855
		c2.527,0.718,5.051,1.082,7.473,1.082c14.27,0,26.687-11.594,26.687-26.793v-20.144v-36.066V94.448V58.382V38.237
		C231.339,23.038,218.922,11.444,204.652,11.444z M159.515,277.358v-42.664c0-2.832,2.27-5.047,5.051-5.047h16.746
		c2.782,0,4.996,2.215,4.996,5.047v42.664c0,2.782-2.214,4.996-4.996,4.996h-16.746
		C161.785,282.354,159.515,280.139,159.515,277.358z" style="fill: rgb(255, 255, 255);"></path>
</g>
</svg>
